<?xml version="1.0" encoding="UTF-8" standalone="no"?>
<!DOCTYPE svg PUBLIC "-//W3C//DTD SVG 1.1//EN"
 "http://www.w3.org/Graphics/SVG/1.1/DTD/svg11.dtd">
<!-- Generated by graphviz version 2.44.1 (20200629.0846)
 -->
<!-- Title: dependencies Pages: 1 -->
<svg width="504pt" height="211pt"
 viewBox="0.00 0.00 504.00 211.00" xmlns="http://www.w3.org/2000/svg" xmlns:xlink="http://www.w3.org/1999/xlink">
<g id="graph0" class="graph" transform="scale(1 1) rotate(0) translate(4 207)">
<title>dependencies</title>
<polygon fill="white" stroke="transparent" points="-4,4 -4,-207 500,-207 500,4 -4,4"/>
<text text-anchor="start" x="227.01" y="-42.4" font-family="sans-serif" font-weight="bold" font-size="14.00">Legend</text>
<polygon fill="#ffffb3" stroke="transparent" points="14,-10 14,-30 34,-30 34,-10 14,-10"/>
<text text-anchor="start" x="37.63" y="-15.4" font-family="sans-serif" font-size="14.00"> &#160;Declarations</text>
<polygon fill="#8dd3c7" stroke="transparent" points="127,-10 127,-30 147,-30 147,-10 127,-10"/>
<text text-anchor="start" x="150.73" y="-15.4" font-family="sans-serif" font-size="14.00"> &#160;Module</text>
<polygon fill="#80b1d3" stroke="transparent" points="213,-10 213,-30 233,-30 233,-10 213,-10"/>
<text text-anchor="start" x="236.78" y="-15.4" font-family="sans-serif" font-size="14.00"> &#160;Bootstrap</text>
<polygon fill="#fdb462" stroke="transparent" points="310,-10 310,-30 330,-30 330,-10 310,-10"/>
<text text-anchor="start" x="333.67" y="-15.4" font-family="sans-serif" font-size="14.00"> &#160;Providers</text>
<polygon fill="#fb8072" stroke="transparent" points="406,-10 406,-30 426,-30 426,-10 406,-10"/>
<text text-anchor="start" x="429.73" y="-15.4" font-family="sans-serif" font-size="14.00"> &#160;Exports</text>
<g id="clust1" class="cluster">
<title>cluster_ListsModule</title>
<polygon fill="none" stroke="black" stroke-dasharray="1,5" points="100,-70 100,-195 396,-195 396,-70 100,-70"/>
</g>
<g id="clust4" class="cluster">
<title>cluster_ListsModule_imports</title>
<polygon fill="none" stroke="black" points="240,-78 240,-130 388,-130 388,-78 240,-78"/>
</g>
<g id="clust2" class="cluster">
<title>cluster_ListsModule_declarations</title>
<polygon fill="none" stroke="black" points="108,-78 108,-130 232,-130 232,-78 108,-78"/>
</g>
<!-- ListsComponent -->
<g id="node1" class="node">
<title>ListsComponent</title>
<polygon fill="#ffffb3" stroke="black" points="224.06,-122 115.94,-122 115.94,-86 224.06,-86 224.06,-122"/>
<text text-anchor="middle" x="170" y="-99.8" font-family="Times,serif" font-size="14.00">ListsComponent</text>
</g>
<!-- ListsModule -->
<g id="node2" class="node">
<title>ListsModule</title>
<polygon fill="#8dd3c7" stroke="black" points="285.27,-187 282.27,-191 261.27,-191 258.27,-187 198.73,-187 198.73,-151 285.27,-151 285.27,-187"/>
<text text-anchor="middle" x="242" y="-164.8" font-family="Times,serif" font-size="14.00">ListsModule</text>
</g>
<!-- ListsComponent&#45;&gt;ListsModule -->
<g id="edge1" class="edge">
<title>ListsComponent&#45;&gt;ListsModule</title>
<path fill="none" stroke="black" d="M211.45,-122.11C211.45,-122.11 211.45,-140.99 211.45,-140.99"/>
<polygon fill="black" stroke="black" points="207.95,-140.99 211.45,-150.99 214.95,-140.99 207.95,-140.99"/>
</g>
<!-- ListsRoutingModule -->
<g id="node3" class="node">
<title>ListsRoutingModule</title>
<polygon fill="#8dd3c7" stroke="black" points="379.89,-122 376.89,-126 355.89,-126 352.89,-122 248.11,-122 248.11,-86 379.89,-86 379.89,-122"/>
<text text-anchor="middle" x="314" y="-99.8" font-family="Times,serif" font-size="14.00">ListsRoutingModule</text>
</g>
<!-- ListsRoutingModule&#45;&gt;ListsModule -->
<g id="edge2" class="edge">
<title>ListsRoutingModule&#45;&gt;ListsModule</title>
<path fill="none" stroke="black" d="M266.72,-122.11C266.72,-122.11 266.72,-140.99 266.72,-140.99"/>
<polygon fill="black" stroke="black" points="263.22,-140.99 266.72,-150.99 270.22,-140.99 263.22,-140.99"/>
</g>
</g>
</svg>
