<?xml version="1.0" encoding="UTF-8" standalone="no"?>
<!DOCTYPE svg PUBLIC "-//W3C//DTD SVG 1.1//EN"
 "http://www.w3.org/Graphics/SVG/1.1/DTD/svg11.dtd">
<!-- Generated by graphviz version 2.44.1 (20200629.0846)
 -->
<!-- Title: dependencies Pages: 1 -->
<svg width="1340pt" height="284pt"
 viewBox="0.00 0.00 1340.00 284.00" xmlns="http://www.w3.org/2000/svg" xmlns:xlink="http://www.w3.org/1999/xlink">
<g id="graph0" class="graph" transform="scale(1 1) rotate(0) translate(4 280)">
<title>dependencies</title>
<polygon fill="white" stroke="transparent" points="-4,4 -4,-280 1336,-280 1336,4 -4,4"/>
<text text-anchor="start" x="645.01" y="-42.4" font-family="sans-serif" font-weight="bold" font-size="14.00">Legend</text>
<polygon fill="#ffffb3" stroke="transparent" points="432,-10 432,-30 452,-30 452,-10 432,-10"/>
<text text-anchor="start" x="455.63" y="-15.4" font-family="sans-serif" font-size="14.00"> &#160;Declarations</text>
<polygon fill="#8dd3c7" stroke="transparent" points="545,-10 545,-30 565,-30 565,-10 545,-10"/>
<text text-anchor="start" x="568.73" y="-15.4" font-family="sans-serif" font-size="14.00"> &#160;Module</text>
<polygon fill="#80b1d3" stroke="transparent" points="631,-10 631,-30 651,-30 651,-10 631,-10"/>
<text text-anchor="start" x="654.78" y="-15.4" font-family="sans-serif" font-size="14.00"> &#160;Bootstrap</text>
<polygon fill="#fdb462" stroke="transparent" points="728,-10 728,-30 748,-30 748,-10 728,-10"/>
<text text-anchor="start" x="751.67" y="-15.4" font-family="sans-serif" font-size="14.00"> &#160;Providers</text>
<polygon fill="#fb8072" stroke="transparent" points="824,-10 824,-30 844,-30 844,-10 824,-10"/>
<text text-anchor="start" x="847.73" y="-15.4" font-family="sans-serif" font-size="14.00"> &#160;Exports</text>
<g id="clust1" class="cluster">
<title>cluster_WidgetsSharedModule</title>
<polygon fill="none" stroke="black" stroke-dasharray="1,5" points="8,-70 8,-268 1324,-268 1324,-70 8,-70"/>
</g>
<g id="clust8" class="cluster">
<title>cluster_WidgetsSharedModule_imports</title>
<polygon fill="none" stroke="black" points="994,-78 994,-130 1316,-130 1316,-78 994,-78"/>
</g>
<g id="clust9" class="cluster">
<title>cluster_WidgetsSharedModule_exports</title>
<polygon fill="none" stroke="black" points="288,-208 288,-260 1088,-260 1088,-208 288,-208"/>
</g>
<g id="clust2" class="cluster">
<title>cluster_WidgetsSharedModule_declarations</title>
<polygon fill="none" stroke="black" points="16,-78 16,-130 986,-130 986,-78 16,-78"/>
</g>
<!-- AddWidgetsDialogComponent -->
<g id="node1" class="node">
<title>AddWidgetsDialogComponent</title>
<polygon fill="#ffffb3" stroke="black" points="978.2,-122 787.8,-122 787.8,-86 978.2,-86 978.2,-122"/>
<text text-anchor="middle" x="883" y="-99.8" font-family="Times,serif" font-size="14.00">AddWidgetsDialogComponent</text>
</g>
<!-- WidgetsSharedModule -->
<g id="node6" class="node">
<title>WidgetsSharedModule</title>
<polygon fill="#8dd3c7" stroke="black" points="749.58,-187 746.58,-191 725.58,-191 722.58,-187 604.42,-187 604.42,-151 749.58,-151 749.58,-187"/>
<text text-anchor="middle" x="677" y="-164.8" font-family="Times,serif" font-size="14.00">WidgetsSharedModule</text>
</g>
<!-- AddWidgetsDialogComponent&#45;&gt;WidgetsSharedModule -->
<g id="edge1" class="edge">
<title>AddWidgetsDialogComponent&#45;&gt;WidgetsSharedModule</title>
<path fill="none" stroke="black" d="M827.9,-122.01C827.9,-138.05 827.9,-159 827.9,-159 827.9,-159 759.8,-159 759.8,-159"/>
<polygon fill="black" stroke="black" points="759.8,-155.5 749.8,-159 759.8,-162.5 759.8,-155.5"/>
</g>
<!-- AssociatedContactComponent -->
<g id="node2" class="node">
<title>AssociatedContactComponent</title>
<polygon fill="#ffffb3" stroke="black" points="770.3,-122 583.7,-122 583.7,-86 770.3,-86 770.3,-122"/>
<text text-anchor="middle" x="677" y="-99.8" font-family="Times,serif" font-size="14.00">AssociatedContactComponent</text>
</g>
<!-- AssociatedContactComponent&#45;&gt;WidgetsSharedModule -->
<g id="edge2" class="edge">
<title>AssociatedContactComponent&#45;&gt;WidgetsSharedModule</title>
<path fill="none" stroke="black" d="M677,-122.11C677,-122.11 677,-140.99 677,-140.99"/>
<polygon fill="black" stroke="black" points="673.5,-140.99 677,-150.99 680.5,-140.99 673.5,-140.99"/>
</g>
<!-- AttachmentsComponent -->
<g id="node3" class="node">
<title>AttachmentsComponent</title>
<polygon fill="#ffffb3" stroke="black" points="566.09,-122 413.91,-122 413.91,-86 566.09,-86 566.09,-122"/>
<text text-anchor="middle" x="490" y="-99.8" font-family="Times,serif" font-size="14.00">AttachmentsComponent</text>
</g>
<!-- AttachmentsComponent&#45;&gt;WidgetsSharedModule -->
<g id="edge3" class="edge">
<title>AttachmentsComponent&#45;&gt;WidgetsSharedModule</title>
<path fill="none" stroke="black" d="M535.12,-122.01C535.12,-138.05 535.12,-159 535.12,-159 535.12,-159 594.4,-159 594.4,-159"/>
<polygon fill="black" stroke="black" points="594.4,-162.5 604.4,-159 594.4,-155.5 594.4,-162.5"/>
</g>
<!-- RelatedCompaniesComponent -->
<g id="node4" class="node">
<title>RelatedCompaniesComponent</title>
<polygon fill="#ffffb3" stroke="black" points="395.59,-122 208.41,-122 208.41,-86 395.59,-86 395.59,-122"/>
<text text-anchor="middle" x="302" y="-99.8" font-family="Times,serif" font-size="14.00">RelatedCompaniesComponent</text>
</g>
<!-- RelatedCompaniesComponent&#45;&gt;WidgetsSharedModule -->
<g id="edge4" class="edge">
<title>RelatedCompaniesComponent&#45;&gt;WidgetsSharedModule</title>
<path fill="none" stroke="black" d="M345.62,-122.27C345.62,-140.56 345.62,-166 345.62,-166 345.62,-166 594.28,-166 594.28,-166"/>
<polygon fill="black" stroke="black" points="594.28,-169.5 604.28,-166 594.28,-162.5 594.28,-169.5"/>
</g>
<!-- WidgetsSharedComponent -->
<g id="node5" class="node">
<title>WidgetsSharedComponent</title>
<polygon fill="#ffffb3" stroke="black" points="190.36,-122 23.64,-122 23.64,-86 190.36,-86 190.36,-122"/>
<text text-anchor="middle" x="107" y="-99.8" font-family="Times,serif" font-size="14.00">WidgetsSharedComponent</text>
</g>
<!-- WidgetsSharedComponent&#45;&gt;WidgetsSharedModule -->
<g id="edge5" class="edge">
<title>WidgetsSharedComponent&#45;&gt;WidgetsSharedModule</title>
<path fill="none" stroke="black" d="M107,-122.13C107,-142.57 107,-173 107,-173 107,-173 594.23,-173 594.23,-173"/>
<polygon fill="black" stroke="black" points="594.23,-176.5 604.23,-173 594.23,-169.5 594.23,-176.5"/>
</g>
<!-- AddWidgetsDialogComponent  -->
<g id="node9" class="node">
<title>AddWidgetsDialogComponent </title>
<polygon fill="#fb8072" stroke="black" points="1079.7,-252 886.3,-252 886.3,-216 1079.7,-216 1079.7,-252"/>
<text text-anchor="middle" x="983" y="-229.8" font-family="Times,serif" font-size="14.00">AddWidgetsDialogComponent </text>
</g>
<!-- WidgetsSharedModule&#45;&gt;AddWidgetsDialogComponent  -->
<g id="edge8" class="edge">
<title>WidgetsSharedModule&#45;&gt;AddWidgetsDialogComponent </title>
<path fill="none" stroke="black" stroke-dasharray="5,2" d="M749.77,-180C825.18,-180 932.12,-180 932.12,-180 932.12,-180 932.12,-205.72 932.12,-205.72"/>
<polygon fill="black" stroke="black" points="928.63,-205.72 932.12,-215.72 935.63,-205.72 928.63,-205.72"/>
</g>
<!-- AssociatedContactComponent  -->
<g id="node10" class="node">
<title>AssociatedContactComponent </title>
<polygon fill="#fb8072" stroke="black" points="867.8,-252 678.2,-252 678.2,-216 867.8,-216 867.8,-252"/>
<text text-anchor="middle" x="773" y="-229.8" font-family="Times,serif" font-size="14.00">AssociatedContactComponent </text>
</g>
<!-- WidgetsSharedModule&#45;&gt;AssociatedContactComponent  -->
<g id="edge9" class="edge">
<title>WidgetsSharedModule&#45;&gt;AssociatedContactComponent </title>
<path fill="none" stroke="black" stroke-dasharray="5,2" d="M713.82,-187.11C713.82,-187.11 713.82,-205.99 713.82,-205.99"/>
<polygon fill="black" stroke="black" points="710.32,-205.99 713.82,-215.99 717.32,-205.99 710.32,-205.99"/>
</g>
<!-- AttachmentsComponent  -->
<g id="node11" class="node">
<title>AttachmentsComponent </title>
<polygon fill="#fb8072" stroke="black" points="659.59,-252 504.41,-252 504.41,-216 659.59,-216 659.59,-252"/>
<text text-anchor="middle" x="582" y="-229.8" font-family="Times,serif" font-size="14.00">AttachmentsComponent </text>
</g>
<!-- WidgetsSharedModule&#45;&gt;AttachmentsComponent  -->
<g id="edge10" class="edge">
<title>WidgetsSharedModule&#45;&gt;AttachmentsComponent </title>
<path fill="none" stroke="black" stroke-dasharray="5,2" d="M632.13,-187.11C632.13,-187.11 632.13,-205.99 632.13,-205.99"/>
<polygon fill="black" stroke="black" points="628.63,-205.99 632.13,-215.99 635.63,-205.99 628.63,-205.99"/>
</g>
<!-- RelatedCompaniesComponent  -->
<g id="node12" class="node">
<title>RelatedCompaniesComponent </title>
<polygon fill="#fb8072" stroke="black" points="486.09,-252 295.91,-252 295.91,-216 486.09,-216 486.09,-252"/>
<text text-anchor="middle" x="391" y="-229.8" font-family="Times,serif" font-size="14.00">RelatedCompaniesComponent </text>
</g>
<!-- WidgetsSharedModule&#45;&gt;RelatedCompaniesComponent  -->
<g id="edge11" class="edge">
<title>WidgetsSharedModule&#45;&gt;RelatedCompaniesComponent </title>
<path fill="none" stroke="black" stroke-dasharray="5,2" d="M604.28,-180C537.92,-180 450.12,-180 450.12,-180 450.12,-180 450.12,-205.72 450.12,-205.72"/>
<polygon fill="black" stroke="black" points="446.62,-205.72 450.12,-215.72 453.62,-205.72 446.62,-205.72"/>
</g>
<!-- SharedModule -->
<g id="node7" class="node">
<title>SharedModule</title>
<polygon fill="#8dd3c7" stroke="black" points="1308.42,-122 1305.42,-126 1284.42,-126 1281.42,-122 1209.58,-122 1209.58,-86 1308.42,-86 1308.42,-122"/>
<text text-anchor="middle" x="1259" y="-99.8" font-family="Times,serif" font-size="14.00">SharedModule</text>
</g>
<!-- SharedModule&#45;&gt;WidgetsSharedModule -->
<g id="edge6" class="edge">
<title>SharedModule&#45;&gt;WidgetsSharedModule</title>
<path fill="none" stroke="black" d="M1259,-122.13C1259,-142.57 1259,-173 1259,-173 1259,-173 759.83,-173 759.83,-173"/>
<polygon fill="black" stroke="black" points="759.83,-169.5 749.83,-173 759.83,-176.5 759.83,-169.5"/>
</g>
<!-- WidgetsSharedRoutingModule -->
<g id="node8" class="node">
<title>WidgetsSharedRoutingModule</title>
<polygon fill="#8dd3c7" stroke="black" points="1192.2,-122 1189.2,-126 1168.2,-126 1165.2,-122 1001.8,-122 1001.8,-86 1192.2,-86 1192.2,-122"/>
<text text-anchor="middle" x="1097" y="-99.8" font-family="Times,serif" font-size="14.00">WidgetsSharedRoutingModule</text>
</g>
<!-- WidgetsSharedRoutingModule&#45;&gt;WidgetsSharedModule -->
<g id="edge7" class="edge">
<title>WidgetsSharedRoutingModule&#45;&gt;WidgetsSharedModule</title>
<path fill="none" stroke="black" d="M1040.88,-122.27C1040.88,-140.56 1040.88,-166 1040.88,-166 1040.88,-166 759.76,-166 759.76,-166"/>
<polygon fill="black" stroke="black" points="759.76,-162.5 749.76,-166 759.76,-169.5 759.76,-162.5"/>
</g>
</g>
</svg>
