<?xml version="1.0" encoding="UTF-8" standalone="no"?>
<!DOCTYPE svg PUBLIC "-//W3C//DTD SVG 1.1//EN"
 "http://www.w3.org/Graphics/SVG/1.1/DTD/svg11.dtd">
<!-- Generated by graphviz version 2.44.1 (20200629.0846)
 -->
<!-- Title: dependencies Pages: 1 -->
<svg width="1404pt" height="284pt"
 viewBox="0.00 0.00 1404.00 284.00" xmlns="http://www.w3.org/2000/svg" xmlns:xlink="http://www.w3.org/1999/xlink">
<g id="graph0" class="graph" transform="scale(1 1) rotate(0) translate(4 280)">
<title>dependencies</title>
<polygon fill="white" stroke="transparent" points="-4,4 -4,-280 1400,-280 1400,4 -4,4"/>
<text text-anchor="start" x="677.01" y="-42.4" font-family="sans-serif" font-weight="bold" font-size="14.00">Legend</text>
<polygon fill="#ffffb3" stroke="transparent" points="464,-10 464,-30 484,-30 484,-10 464,-10"/>
<text text-anchor="start" x="487.63" y="-15.4" font-family="sans-serif" font-size="14.00"> &#160;Declarations</text>
<polygon fill="#8dd3c7" stroke="transparent" points="577,-10 577,-30 597,-30 597,-10 577,-10"/>
<text text-anchor="start" x="600.73" y="-15.4" font-family="sans-serif" font-size="14.00"> &#160;Module</text>
<polygon fill="#80b1d3" stroke="transparent" points="663,-10 663,-30 683,-30 683,-10 663,-10"/>
<text text-anchor="start" x="686.78" y="-15.4" font-family="sans-serif" font-size="14.00"> &#160;Bootstrap</text>
<polygon fill="#fdb462" stroke="transparent" points="760,-10 760,-30 780,-30 780,-10 760,-10"/>
<text text-anchor="start" x="783.67" y="-15.4" font-family="sans-serif" font-size="14.00"> &#160;Providers</text>
<polygon fill="#fb8072" stroke="transparent" points="856,-10 856,-30 876,-30 876,-10 856,-10"/>
<text text-anchor="start" x="879.73" y="-15.4" font-family="sans-serif" font-size="14.00"> &#160;Exports</text>
<g id="clust1" class="cluster">
<title>cluster_SharedModule</title>
<polygon fill="none" stroke="black" stroke-dasharray="1,5" points="8,-70 8,-268 1388,-268 1388,-70 8,-70"/>
</g>
<g id="clust12" class="cluster">
<title>cluster_SharedModule_providers</title>
<polygon fill="none" stroke="black" points="1010,-78 1010,-130 1380,-130 1380,-78 1010,-78"/>
</g>
<g id="clust2" class="cluster">
<title>cluster_SharedModule_declarations</title>
<polygon fill="none" stroke="black" points="16,-78 16,-130 1002,-130 1002,-78 16,-78"/>
</g>
<g id="clust10" class="cluster">
<title>cluster_SharedModule_exports</title>
<polygon fill="none" stroke="black" points="184,-208 184,-260 1190,-260 1190,-208 184,-208"/>
</g>
<!-- AidaLoaderComponent -->
<g id="node1" class="node">
<title>AidaLoaderComponent</title>
<polygon fill="#ffffb3" stroke="black" points="994.19,-122 845.81,-122 845.81,-86 994.19,-86 994.19,-122"/>
<text text-anchor="middle" x="920" y="-99.8" font-family="Times,serif" font-size="14.00">AidaLoaderComponent</text>
</g>
<!-- SharedModule -->
<g id="node7" class="node">
<title>SharedModule</title>
<polygon fill="#8dd3c7" stroke="black" points="711.42,-187 708.42,-191 687.42,-191 684.42,-187 612.58,-187 612.58,-151 711.42,-151 711.42,-187"/>
<text text-anchor="middle" x="662" y="-164.8" font-family="Times,serif" font-size="14.00">SharedModule</text>
</g>
<!-- AidaLoaderComponent&#45;&gt;SharedModule -->
<g id="edge1" class="edge">
<title>AidaLoaderComponent&#45;&gt;SharedModule</title>
<path fill="none" stroke="black" d="M946.82,-122.24C946.82,-137.57 946.82,-157 946.82,-157 946.82,-157 721.29,-157 721.29,-157"/>
<polygon fill="black" stroke="black" points="721.29,-153.5 711.29,-157 721.29,-160.5 721.29,-153.5"/>
</g>
<!-- DeleteDialogComponent -->
<g id="node2" class="node">
<title>DeleteDialogComponent</title>
<polygon fill="#ffffb3" stroke="black" points="827.97,-122 672.03,-122 672.03,-86 827.97,-86 827.97,-122"/>
<text text-anchor="middle" x="750" y="-99.8" font-family="Times,serif" font-size="14.00">DeleteDialogComponent</text>
</g>
<!-- DeleteDialogComponent&#45;&gt;SharedModule -->
<g id="edge2" class="edge">
<title>DeleteDialogComponent&#45;&gt;SharedModule</title>
<path fill="none" stroke="black" d="M691.61,-122.11C691.61,-122.11 691.61,-140.99 691.61,-140.99"/>
<polygon fill="black" stroke="black" points="688.11,-140.99 691.61,-150.99 695.11,-140.99 688.11,-140.99"/>
</g>
<!-- GeneralEmailComponent -->
<g id="node3" class="node">
<title>GeneralEmailComponent</title>
<polygon fill="#ffffb3" stroke="black" points="653.57,-122 494.43,-122 494.43,-86 653.57,-86 653.57,-122"/>
<text text-anchor="middle" x="574" y="-99.8" font-family="Times,serif" font-size="14.00">GeneralEmailComponent</text>
</g>
<!-- GeneralEmailComponent&#45;&gt;SharedModule -->
<g id="edge3" class="edge">
<title>GeneralEmailComponent&#45;&gt;SharedModule</title>
<path fill="none" stroke="black" d="M633.16,-122.11C633.16,-122.11 633.16,-140.99 633.16,-140.99"/>
<polygon fill="black" stroke="black" points="629.66,-140.99 633.16,-150.99 636.66,-140.99 629.66,-140.99"/>
</g>
<!-- GeneralPhoneComponent -->
<g id="node4" class="node">
<title>GeneralPhoneComponent</title>
<polygon fill="#ffffb3" stroke="black" points="476.13,-122 315.87,-122 315.87,-86 476.13,-86 476.13,-122"/>
<text text-anchor="middle" x="396" y="-99.8" font-family="Times,serif" font-size="14.00">GeneralPhoneComponent</text>
</g>
<!-- GeneralPhoneComponent&#45;&gt;SharedModule -->
<g id="edge4" class="edge">
<title>GeneralPhoneComponent&#45;&gt;SharedModule</title>
<path fill="none" stroke="black" d="M389.25,-122.24C389.25,-137.57 389.25,-157 389.25,-157 389.25,-157 602.61,-157 602.61,-157"/>
<polygon fill="black" stroke="black" points="602.61,-160.5 612.61,-157 602.61,-153.5 602.61,-160.5"/>
</g>
<!-- LoaderComponent -->
<g id="node5" class="node">
<title>LoaderComponent</title>
<polygon fill="#ffffb3" stroke="black" points="297.47,-122 176.53,-122 176.53,-86 297.47,-86 297.47,-122"/>
<text text-anchor="middle" x="237" y="-99.8" font-family="Times,serif" font-size="14.00">LoaderComponent</text>
</g>
<!-- LoaderComponent&#45;&gt;SharedModule -->
<g id="edge5" class="edge">
<title>LoaderComponent&#45;&gt;SharedModule</title>
<path fill="none" stroke="black" d="M244.62,-122.02C244.62,-139.37 244.62,-163 244.62,-163 244.62,-163 602.48,-163 602.48,-163"/>
<polygon fill="black" stroke="black" points="602.48,-166.5 612.48,-163 602.48,-159.5 602.48,-166.5"/>
</g>
<!-- SideSlideComponent -->
<g id="node6" class="node">
<title>SideSlideComponent</title>
<polygon fill="#ffffb3" stroke="black" points="158.5,-122 23.5,-122 23.5,-86 158.5,-86 158.5,-122"/>
<text text-anchor="middle" x="91" y="-99.8" font-family="Times,serif" font-size="14.00">SideSlideComponent</text>
</g>
<!-- SideSlideComponent&#45;&gt;SharedModule -->
<g id="edge6" class="edge">
<title>SideSlideComponent&#45;&gt;SharedModule</title>
<path fill="none" stroke="black" d="M91,-122.11C91,-141.34 91,-169 91,-169 91,-169 602.33,-169 602.33,-169"/>
<polygon fill="black" stroke="black" points="602.33,-172.5 612.33,-169 602.33,-165.5 602.33,-172.5"/>
</g>
<!-- AidaLoaderComponent  -->
<g id="node8" class="node">
<title>AidaLoaderComponent </title>
<polygon fill="#fb8072" stroke="black" points="1181.69,-252 1030.31,-252 1030.31,-216 1181.69,-216 1181.69,-252"/>
<text text-anchor="middle" x="1106" y="-229.8" font-family="Times,serif" font-size="14.00">AidaLoaderComponent </text>
</g>
<!-- SharedModule&#45;&gt;AidaLoaderComponent  -->
<g id="edge7" class="edge">
<title>SharedModule&#45;&gt;AidaLoaderComponent </title>
<path fill="none" stroke="black" stroke-dasharray="5,2" d="M711.54,-175C824.26,-175 1090.22,-175 1090.22,-175 1090.22,-175 1090.22,-205.98 1090.22,-205.98"/>
<polygon fill="black" stroke="black" points="1086.72,-205.98 1090.22,-215.98 1093.72,-205.98 1086.72,-205.98"/>
</g>
<!-- DeleteDialogComponent  -->
<g id="node9" class="node">
<title>DeleteDialogComponent </title>
<polygon fill="#fb8072" stroke="black" points="1011.97,-252 852.03,-252 852.03,-216 1011.97,-216 1011.97,-252"/>
<text text-anchor="middle" x="932" y="-229.8" font-family="Times,serif" font-size="14.00">DeleteDialogComponent </text>
</g>
<!-- SharedModule&#45;&gt;DeleteDialogComponent  -->
<g id="edge8" class="edge">
<title>SharedModule&#45;&gt;DeleteDialogComponent </title>
<path fill="none" stroke="black" stroke-dasharray="5,2" d="M711.22,-181C780.8,-181 899.54,-181 899.54,-181 899.54,-181 899.54,-205.76 899.54,-205.76"/>
<polygon fill="black" stroke="black" points="896.04,-205.76 899.54,-215.76 903.04,-205.76 896.04,-205.76"/>
</g>
<!-- GeneralEmailComponent  -->
<g id="node10" class="node">
<title>GeneralEmailComponent </title>
<polygon fill="#fb8072" stroke="black" points="834.07,-252 671.93,-252 671.93,-216 834.07,-216 834.07,-252"/>
<text text-anchor="middle" x="753" y="-229.8" font-family="Times,serif" font-size="14.00">GeneralEmailComponent </text>
</g>
<!-- SharedModule&#45;&gt;GeneralEmailComponent  -->
<g id="edge9" class="edge">
<title>SharedModule&#45;&gt;GeneralEmailComponent </title>
<path fill="none" stroke="black" stroke-dasharray="5,2" d="M691.46,-187.11C691.46,-187.11 691.46,-205.99 691.46,-205.99"/>
<polygon fill="black" stroke="black" points="687.96,-205.99 691.46,-215.99 694.96,-205.99 687.96,-205.99"/>
</g>
<!-- GeneralPhoneComponent  -->
<g id="node11" class="node">
<title>GeneralPhoneComponent </title>
<polygon fill="#fb8072" stroke="black" points="654.13,-252 489.87,-252 489.87,-216 654.13,-216 654.13,-252"/>
<text text-anchor="middle" x="572" y="-229.8" font-family="Times,serif" font-size="14.00">GeneralPhoneComponent </text>
</g>
<!-- SharedModule&#45;&gt;GeneralPhoneComponent  -->
<g id="edge10" class="edge">
<title>SharedModule&#45;&gt;GeneralPhoneComponent </title>
<path fill="none" stroke="black" stroke-dasharray="5,2" d="M633.43,-187.11C633.43,-187.11 633.43,-205.99 633.43,-205.99"/>
<polygon fill="black" stroke="black" points="629.93,-205.99 633.43,-215.99 636.93,-205.99 629.93,-205.99"/>
</g>
<!-- LoaderComponent  -->
<g id="node12" class="node">
<title>LoaderComponent </title>
<polygon fill="#fb8072" stroke="black" points="472.48,-252 347.52,-252 347.52,-216 472.48,-216 472.48,-252"/>
<text text-anchor="middle" x="410" y="-229.8" font-family="Times,serif" font-size="14.00">LoaderComponent </text>
</g>
<!-- SharedModule&#45;&gt;LoaderComponent  -->
<g id="edge11" class="edge">
<title>SharedModule&#45;&gt;LoaderComponent </title>
<path fill="none" stroke="black" stroke-dasharray="5,2" d="M612.67,-181C544.76,-181 430.75,-181 430.75,-181 430.75,-181 430.75,-205.76 430.75,-205.76"/>
<polygon fill="black" stroke="black" points="427.25,-205.76 430.75,-215.76 434.25,-205.76 427.25,-205.76"/>
</g>
<!-- SideSlideComponent  -->
<g id="node13" class="node">
<title>SideSlideComponent </title>
<polygon fill="#fb8072" stroke="black" points="330.5,-252 191.5,-252 191.5,-216 330.5,-216 330.5,-252"/>
<text text-anchor="middle" x="261" y="-229.8" font-family="Times,serif" font-size="14.00">SideSlideComponent </text>
</g>
<!-- SharedModule&#45;&gt;SideSlideComponent  -->
<g id="edge12" class="edge">
<title>SharedModule&#45;&gt;SideSlideComponent </title>
<path fill="none" stroke="black" stroke-dasharray="5,2" d="M612.7,-175C518.67,-175 322.97,-175 322.97,-175 322.97,-175 322.97,-205.98 322.97,-205.98"/>
<polygon fill="black" stroke="black" points="319.47,-205.98 322.97,-215.98 326.47,-205.98 319.47,-205.98"/>
</g>
<!-- GetLoggedUserService -->
<g id="node14" class="node">
<title>GetLoggedUserService</title>
<ellipse fill="#fdb462" stroke="black" cx="1270" cy="-104" rx="101.82" ry="18"/>
<text text-anchor="middle" x="1270" y="-99.8" font-family="Times,serif" font-size="14.00">GetLoggedUserService</text>
</g>
<!-- GetLoggedUserService&#45;&gt;SharedModule -->
<g id="edge13" class="edge">
<title>GetLoggedUserService&#45;&gt;SharedModule</title>
<path fill="none" stroke="black" d="M1175.09,-110.47C1175.09,-126.91 1175.09,-169 1175.09,-169 1175.09,-169 721.66,-169 721.66,-169"/>
<polygon fill="black" stroke="black" points="721.66,-165.5 711.66,-169 721.66,-172.5 721.66,-165.5"/>
</g>
<!-- ToastMessage -->
<g id="node15" class="node">
<title>ToastMessage</title>
<ellipse fill="#fdb462" stroke="black" cx="1084" cy="-104" rx="66.05" ry="18"/>
<text text-anchor="middle" x="1084" y="-99.8" font-family="Times,serif" font-size="14.00">ToastMessage</text>
</g>
<!-- ToastMessage&#45;&gt;SharedModule -->
<g id="edge14" class="edge">
<title>ToastMessage&#45;&gt;SharedModule</title>
<path fill="none" stroke="black" d="M1023.94,-111.71C1023.94,-127.71 1023.94,-163 1023.94,-163 1023.94,-163 721.57,-163 721.57,-163"/>
<polygon fill="black" stroke="black" points="721.57,-159.5 711.57,-163 721.57,-166.5 721.57,-159.5"/>
</g>
</g>
</svg>
