<?xml version="1.0" encoding="UTF-8" standalone="no"?>
<!DOCTYPE svg PUBLIC "-//W3C//DTD SVG 1.1//EN"
 "http://www.w3.org/Graphics/SVG/1.1/DTD/svg11.dtd">
<!-- Generated by graphviz version 2.44.1 (20200629.0846)
 -->
<!-- Title: dependencies Pages: 1 -->
<svg width="1672pt" height="211pt"
 viewBox="0.00 0.00 1672.00 211.00" xmlns="http://www.w3.org/2000/svg" xmlns:xlink="http://www.w3.org/1999/xlink">
<g id="graph0" class="graph" transform="scale(1 1) rotate(0) translate(4 207)">
<title>dependencies</title>
<polygon fill="white" stroke="transparent" points="-4,4 -4,-207 1668,-207 1668,4 -4,4"/>
<text text-anchor="start" x="811.01" y="-42.4" font-family="sans-serif" font-weight="bold" font-size="14.00">Legend</text>
<polygon fill="#ffffb3" stroke="transparent" points="598,-10 598,-30 618,-30 618,-10 598,-10"/>
<text text-anchor="start" x="621.63" y="-15.4" font-family="sans-serif" font-size="14.00"> &#160;Declarations</text>
<polygon fill="#8dd3c7" stroke="transparent" points="711,-10 711,-30 731,-30 731,-10 711,-10"/>
<text text-anchor="start" x="734.73" y="-15.4" font-family="sans-serif" font-size="14.00"> &#160;Module</text>
<polygon fill="#80b1d3" stroke="transparent" points="797,-10 797,-30 817,-30 817,-10 797,-10"/>
<text text-anchor="start" x="820.78" y="-15.4" font-family="sans-serif" font-size="14.00"> &#160;Bootstrap</text>
<polygon fill="#fdb462" stroke="transparent" points="894,-10 894,-30 914,-30 914,-10 894,-10"/>
<text text-anchor="start" x="917.67" y="-15.4" font-family="sans-serif" font-size="14.00"> &#160;Providers</text>
<polygon fill="#fb8072" stroke="transparent" points="990,-10 990,-30 1010,-30 1010,-10 990,-10"/>
<text text-anchor="start" x="1013.73" y="-15.4" font-family="sans-serif" font-size="14.00"> &#160;Exports</text>
<g id="clust1" class="cluster">
<title>cluster_AuthenticationModule</title>
<polygon fill="none" stroke="black" stroke-dasharray="1,5" points="8,-70 8,-195 1656,-195 1656,-70 8,-70"/>
</g>
<g id="clust10" class="cluster">
<title>cluster_AuthenticationModule_imports</title>
<polygon fill="none" stroke="black" points="1328,-78 1328,-130 1648,-130 1648,-78 1328,-78"/>
</g>
<g id="clust2" class="cluster">
<title>cluster_AuthenticationModule_declarations</title>
<polygon fill="none" stroke="black" points="16,-78 16,-130 1320,-130 1320,-78 16,-78"/>
</g>
<!-- AuthenticationComponent -->
<g id="node1" class="node">
<title>AuthenticationComponent</title>
<polygon fill="#ffffb3" stroke="black" points="1312.04,-122 1147.96,-122 1147.96,-86 1312.04,-86 1312.04,-122"/>
<text text-anchor="middle" x="1230" y="-99.8" font-family="Times,serif" font-size="14.00">AuthenticationComponent</text>
</g>
<!-- AuthenticationModule -->
<g id="node8" class="node">
<title>AuthenticationModule</title>
<polygon fill="#8dd3c7" stroke="black" points="899.25,-187 896.25,-191 875.25,-191 872.25,-187 756.75,-187 756.75,-151 899.25,-151 899.25,-187"/>
<text text-anchor="middle" x="828" y="-164.8" font-family="Times,serif" font-size="14.00">AuthenticationModule</text>
</g>
<!-- AuthenticationComponent&#45;&gt;AuthenticationModule -->
<g id="edge1" class="edge">
<title>AuthenticationComponent&#45;&gt;AuthenticationModule</title>
<path fill="none" stroke="black" d="M1230,-122.27C1230,-140.56 1230,-166 1230,-166 1230,-166 909.41,-166 909.41,-166"/>
<polygon fill="black" stroke="black" points="909.41,-162.5 899.41,-166 909.41,-169.5 909.41,-162.5"/>
</g>
<!-- ForgotPasswordComponent -->
<g id="node2" class="node">
<title>ForgotPasswordComponent</title>
<polygon fill="#ffffb3" stroke="black" points="1130.32,-122 957.68,-122 957.68,-86 1130.32,-86 1130.32,-122"/>
<text text-anchor="middle" x="1044" y="-99.8" font-family="Times,serif" font-size="14.00">ForgotPasswordComponent</text>
</g>
<!-- ForgotPasswordComponent&#45;&gt;AuthenticationModule -->
<g id="edge2" class="edge">
<title>ForgotPasswordComponent&#45;&gt;AuthenticationModule</title>
<path fill="none" stroke="black" d="M1044,-122.01C1044,-138.05 1044,-159 1044,-159 1044,-159 909.33,-159 909.33,-159"/>
<polygon fill="black" stroke="black" points="909.33,-155.5 899.33,-159 909.33,-162.5 909.33,-155.5"/>
</g>
<!-- ForgotPasswordStepFirstComponent -->
<g id="node3" class="node">
<title>ForgotPasswordStepFirstComponent</title>
<polygon fill="#ffffb3" stroke="black" points="939.38,-122 716.62,-122 716.62,-86 939.38,-86 939.38,-122"/>
<text text-anchor="middle" x="828" y="-99.8" font-family="Times,serif" font-size="14.00">ForgotPasswordStepFirstComponent</text>
</g>
<!-- ForgotPasswordStepFirstComponent&#45;&gt;AuthenticationModule -->
<g id="edge3" class="edge">
<title>ForgotPasswordStepFirstComponent&#45;&gt;AuthenticationModule</title>
<path fill="none" stroke="black" d="M828,-122.11C828,-122.11 828,-140.99 828,-140.99"/>
<polygon fill="black" stroke="black" points="824.5,-140.99 828,-150.99 831.5,-140.99 824.5,-140.99"/>
</g>
<!-- ForgotPasswordStepSecondComponent -->
<g id="node4" class="node">
<title>ForgotPasswordStepSecondComponent</title>
<polygon fill="#ffffb3" stroke="black" points="698.42,-122 459.58,-122 459.58,-86 698.42,-86 698.42,-122"/>
<text text-anchor="middle" x="579" y="-99.8" font-family="Times,serif" font-size="14.00">ForgotPasswordStepSecondComponent</text>
</g>
<!-- ForgotPasswordStepSecondComponent&#45;&gt;AuthenticationModule -->
<g id="edge4" class="edge">
<title>ForgotPasswordStepSecondComponent&#45;&gt;AuthenticationModule</title>
<path fill="none" stroke="black" d="M579,-122.01C579,-138.05 579,-159 579,-159 579,-159 746.65,-159 746.65,-159"/>
<polygon fill="black" stroke="black" points="746.65,-162.5 756.65,-159 746.65,-155.5 746.65,-162.5"/>
</g>
<!-- LoginComponent -->
<g id="node5" class="node">
<title>LoginComponent</title>
<polygon fill="#ffffb3" stroke="black" points="441.28,-122 326.72,-122 326.72,-86 441.28,-86 441.28,-122"/>
<text text-anchor="middle" x="384" y="-99.8" font-family="Times,serif" font-size="14.00">LoginComponent</text>
</g>
<!-- LoginComponent&#45;&gt;AuthenticationModule -->
<g id="edge5" class="edge">
<title>LoginComponent&#45;&gt;AuthenticationModule</title>
<path fill="none" stroke="black" d="M384,-122.27C384,-140.56 384,-166 384,-166 384,-166 746.66,-166 746.66,-166"/>
<polygon fill="black" stroke="black" points="746.66,-169.5 756.66,-166 746.66,-162.5 746.66,-169.5"/>
</g>
<!-- SignupComponent -->
<g id="node6" class="node">
<title>SignupComponent</title>
<polygon fill="#ffffb3" stroke="black" points="308.51,-122 187.49,-122 187.49,-86 308.51,-86 308.51,-122"/>
<text text-anchor="middle" x="248" y="-99.8" font-family="Times,serif" font-size="14.00">SignupComponent</text>
</g>
<!-- SignupComponent&#45;&gt;AuthenticationModule -->
<g id="edge6" class="edge">
<title>SignupComponent&#45;&gt;AuthenticationModule</title>
<path fill="none" stroke="black" d="M248,-122.13C248,-142.57 248,-173 248,-173 248,-173 746.59,-173 746.59,-173"/>
<polygon fill="black" stroke="black" points="746.59,-176.5 756.59,-173 746.59,-169.5 746.59,-176.5"/>
</g>
<!-- UserProfileComponent -->
<g id="node7" class="node">
<title>UserProfileComponent</title>
<polygon fill="#ffffb3" stroke="black" points="169.86,-122 24.14,-122 24.14,-86 169.86,-86 169.86,-122"/>
<text text-anchor="middle" x="97" y="-99.8" font-family="Times,serif" font-size="14.00">UserProfileComponent</text>
</g>
<!-- UserProfileComponent&#45;&gt;AuthenticationModule -->
<g id="edge7" class="edge">
<title>UserProfileComponent&#45;&gt;AuthenticationModule</title>
<path fill="none" stroke="black" d="M97,-122.01C97,-144.49 97,-180 97,-180 97,-180 746.58,-180 746.58,-180"/>
<polygon fill="black" stroke="black" points="746.58,-183.5 756.58,-180 746.58,-176.5 746.58,-183.5"/>
</g>
<!-- AuthenticationRoutingModule -->
<g id="node9" class="node">
<title>AuthenticationRoutingModule</title>
<polygon fill="#8dd3c7" stroke="black" points="1639.87,-122 1636.87,-126 1615.87,-126 1612.87,-122 1452.13,-122 1452.13,-86 1639.87,-86 1639.87,-122"/>
<text text-anchor="middle" x="1546" y="-99.8" font-family="Times,serif" font-size="14.00">AuthenticationRoutingModule</text>
</g>
<!-- AuthenticationRoutingModule&#45;&gt;AuthenticationModule -->
<g id="edge8" class="edge">
<title>AuthenticationRoutingModule&#45;&gt;AuthenticationModule</title>
<path fill="none" stroke="black" d="M1546,-122.01C1546,-144.49 1546,-180 1546,-180 1546,-180 909.47,-180 909.47,-180"/>
<polygon fill="black" stroke="black" points="909.47,-176.5 899.47,-180 909.47,-183.5 909.47,-176.5"/>
</g>
<!-- SharedModule -->
<g id="node10" class="node">
<title>SharedModule</title>
<polygon fill="#8dd3c7" stroke="black" points="1434.42,-122 1431.42,-126 1410.42,-126 1407.42,-122 1335.58,-122 1335.58,-86 1434.42,-86 1434.42,-122"/>
<text text-anchor="middle" x="1385" y="-99.8" font-family="Times,serif" font-size="14.00">SharedModule</text>
</g>
<!-- SharedModule&#45;&gt;AuthenticationModule -->
<g id="edge9" class="edge">
<title>SharedModule&#45;&gt;AuthenticationModule</title>
<path fill="none" stroke="black" d="M1385,-122.13C1385,-142.57 1385,-173 1385,-173 1385,-173 909.39,-173 909.39,-173"/>
<polygon fill="black" stroke="black" points="909.39,-169.5 899.39,-173 909.39,-176.5 909.39,-169.5"/>
</g>
</g>
</svg>
