<?xml version="1.0" encoding="UTF-8" standalone="no"?>
<!DOCTYPE svg PUBLIC "-//W3C//DTD SVG 1.1//EN"
 "http://www.w3.org/Graphics/SVG/1.1/DTD/svg11.dtd">
<!-- Generated by graphviz version 2.44.1 (20200629.0846)
 -->
<!-- Title: dependencies Pages: 1 -->
<svg width="504pt" height="211pt"
 viewBox="0.00 0.00 504.00 211.00" xmlns="http://www.w3.org/2000/svg" xmlns:xlink="http://www.w3.org/1999/xlink">
<g id="graph0" class="graph" transform="scale(1 1) rotate(0) translate(4 207)">
<title>dependencies</title>
<polygon fill="white" stroke="transparent" points="-4,4 -4,-207 500,-207 500,4 -4,4"/>
<text text-anchor="start" x="227.01" y="-42.4" font-family="sans-serif" font-weight="bold" font-size="14.00">Legend</text>
<polygon fill="#ffffb3" stroke="transparent" points="14,-10 14,-30 34,-30 34,-10 14,-10"/>
<text text-anchor="start" x="37.63" y="-15.4" font-family="sans-serif" font-size="14.00"> &#160;Declarations</text>
<polygon fill="#8dd3c7" stroke="transparent" points="127,-10 127,-30 147,-30 147,-10 127,-10"/>
<text text-anchor="start" x="150.73" y="-15.4" font-family="sans-serif" font-size="14.00"> &#160;Module</text>
<polygon fill="#80b1d3" stroke="transparent" points="213,-10 213,-30 233,-30 233,-10 213,-10"/>
<text text-anchor="start" x="236.78" y="-15.4" font-family="sans-serif" font-size="14.00"> &#160;Bootstrap</text>
<polygon fill="#fdb462" stroke="transparent" points="310,-10 310,-30 330,-30 330,-10 310,-10"/>
<text text-anchor="start" x="333.67" y="-15.4" font-family="sans-serif" font-size="14.00"> &#160;Providers</text>
<polygon fill="#fb8072" stroke="transparent" points="406,-10 406,-30 426,-30 426,-10 406,-10"/>
<text text-anchor="start" x="429.73" y="-15.4" font-family="sans-serif" font-size="14.00"> &#160;Exports</text>
<g id="clust1" class="cluster">
<title>cluster_HumanResourceModule</title>
<polygon fill="none" stroke="black" stroke-dasharray="1,5" points="34,-70 34,-195 462,-195 462,-70 34,-70"/>
</g>
<g id="clust4" class="cluster">
<title>cluster_HumanResourceModule_imports</title>
<polygon fill="none" stroke="black" points="240,-78 240,-130 454,-130 454,-78 240,-78"/>
</g>
<g id="clust2" class="cluster">
<title>cluster_HumanResourceModule_declarations</title>
<polygon fill="none" stroke="black" points="42,-78 42,-130 232,-130 232,-78 42,-78"/>
</g>
<!-- HumanResourceComponent -->
<g id="node1" class="node">
<title>HumanResourceComponent</title>
<polygon fill="#ffffb3" stroke="black" points="224.13,-122 49.87,-122 49.87,-86 224.13,-86 224.13,-122"/>
<text text-anchor="middle" x="137" y="-99.8" font-family="Times,serif" font-size="14.00">HumanResourceComponent</text>
</g>
<!-- HumanResourceModule -->
<g id="node2" class="node">
<title>HumanResourceModule</title>
<polygon fill="#8dd3c7" stroke="black" points="318.35,-187 315.35,-191 294.35,-191 291.35,-187 165.65,-187 165.65,-151 318.35,-151 318.35,-187"/>
<text text-anchor="middle" x="242" y="-164.8" font-family="Times,serif" font-size="14.00">HumanResourceModule</text>
</g>
<!-- HumanResourceComponent&#45;&gt;HumanResourceModule -->
<g id="edge1" class="edge">
<title>HumanResourceComponent&#45;&gt;HumanResourceModule</title>
<path fill="none" stroke="black" d="M194.95,-122.11C194.95,-122.11 194.95,-140.99 194.95,-140.99"/>
<polygon fill="black" stroke="black" points="191.45,-140.99 194.95,-150.99 198.45,-140.99 191.45,-140.99"/>
</g>
<!-- HumanResourceRoutingModule -->
<g id="node3" class="node">
<title>HumanResourceRoutingModule</title>
<polygon fill="#8dd3c7" stroke="black" points="445.97,-122 442.97,-126 421.97,-126 418.97,-122 248.03,-122 248.03,-86 445.97,-86 445.97,-122"/>
<text text-anchor="middle" x="347" y="-99.8" font-family="Times,serif" font-size="14.00">HumanResourceRoutingModule</text>
</g>
<!-- HumanResourceRoutingModule&#45;&gt;HumanResourceModule -->
<g id="edge2" class="edge">
<title>HumanResourceRoutingModule&#45;&gt;HumanResourceModule</title>
<path fill="none" stroke="black" d="M283.22,-122.11C283.22,-122.11 283.22,-140.99 283.22,-140.99"/>
<polygon fill="black" stroke="black" points="279.72,-140.99 283.22,-150.99 286.72,-140.99 279.72,-140.99"/>
</g>
</g>
</svg>
