<?xml version="1.0" encoding="UTF-8" standalone="no"?>
<!DOCTYPE svg PUBLIC "-//W3C//DTD SVG 1.1//EN"
 "http://www.w3.org/Graphics/SVG/1.1/DTD/svg11.dtd">
<!-- Generated by graphviz version 2.44.1 (20200629.0846)
 -->
<!-- Title: dependencies Pages: 1 -->
<svg width="3304pt" height="211pt"
 viewBox="0.00 0.00 3304.00 211.00" xmlns="http://www.w3.org/2000/svg" xmlns:xlink="http://www.w3.org/1999/xlink">
<g id="graph0" class="graph" transform="scale(1 1) rotate(0) translate(4 207)">
<title>dependencies</title>
<polygon fill="white" stroke="transparent" points="-4,4 -4,-207 3300,-207 3300,4 -4,4"/>
<text text-anchor="start" x="1627.01" y="-42.4" font-family="sans-serif" font-weight="bold" font-size="14.00">Legend</text>
<polygon fill="#ffffb3" stroke="transparent" points="1414,-10 1414,-30 1434,-30 1434,-10 1414,-10"/>
<text text-anchor="start" x="1437.63" y="-15.4" font-family="sans-serif" font-size="14.00"> &#160;Declarations</text>
<polygon fill="#8dd3c7" stroke="transparent" points="1527,-10 1527,-30 1547,-30 1547,-10 1527,-10"/>
<text text-anchor="start" x="1550.73" y="-15.4" font-family="sans-serif" font-size="14.00"> &#160;Module</text>
<polygon fill="#80b1d3" stroke="transparent" points="1613,-10 1613,-30 1633,-30 1633,-10 1613,-10"/>
<text text-anchor="start" x="1636.78" y="-15.4" font-family="sans-serif" font-size="14.00"> &#160;Bootstrap</text>
<polygon fill="#fdb462" stroke="transparent" points="1710,-10 1710,-30 1730,-30 1730,-10 1710,-10"/>
<text text-anchor="start" x="1733.67" y="-15.4" font-family="sans-serif" font-size="14.00"> &#160;Providers</text>
<polygon fill="#fb8072" stroke="transparent" points="1806,-10 1806,-30 1826,-30 1826,-10 1806,-10"/>
<text text-anchor="start" x="1829.73" y="-15.4" font-family="sans-serif" font-size="14.00"> &#160;Exports</text>
<g id="clust1" class="cluster">
<title>cluster_RegistriesModule</title>
<polygon fill="none" stroke="black" stroke-dasharray="1,5" points="8,-70 8,-195 3288,-195 3288,-70 8,-70"/>
</g>
<g id="clust22" class="cluster">
<title>cluster_RegistriesModule_imports</title>
<polygon fill="none" stroke="black" points="2823,-78 2823,-130 3280,-130 3280,-78 2823,-78"/>
</g>
<g id="clust2" class="cluster">
<title>cluster_RegistriesModule_declarations</title>
<polygon fill="none" stroke="black" points="16,-78 16,-130 2815,-130 2815,-78 16,-78"/>
</g>
<!-- ActivitiesComponent -->
<g id="node1" class="node">
<title>ActivitiesComponent</title>
<polygon fill="#ffffb3" stroke="black" points="2806.77,-122 2671.23,-122 2671.23,-86 2806.77,-86 2806.77,-122"/>
<text text-anchor="middle" x="2739" y="-99.8" font-family="Times,serif" font-size="14.00">ActivitiesComponent</text>
</g>
<!-- RegistriesModule -->
<g id="node20" class="node">
<title>RegistriesModule</title>
<polygon fill="#8dd3c7" stroke="black" points="1622.54,-187 1619.54,-191 1598.54,-191 1595.54,-187 1507.46,-187 1507.46,-151 1622.54,-151 1622.54,-187"/>
<text text-anchor="middle" x="1565" y="-164.8" font-family="Times,serif" font-size="14.00">RegistriesModule</text>
</g>
<!-- ActivitiesComponent&#45;&gt;RegistriesModule -->
<g id="edge1" class="edge">
<title>ActivitiesComponent&#45;&gt;RegistriesModule</title>
<path fill="none" stroke="black" d="M2739,-122.03C2739,-142.77 2739,-174 2739,-174 2739,-174 1632.82,-174 1632.82,-174"/>
<polygon fill="black" stroke="black" points="1632.82,-170.5 1622.82,-174 1632.82,-177.5 1632.82,-170.5"/>
</g>
<!-- AddCompanyComponent -->
<g id="node2" class="node">
<title>AddCompanyComponent</title>
<polygon fill="#ffffb3" stroke="black" points="2652.88,-122 2493.12,-122 2493.12,-86 2652.88,-86 2652.88,-122"/>
<text text-anchor="middle" x="2573" y="-99.8" font-family="Times,serif" font-size="14.00">AddCompanyComponent</text>
</g>
<!-- AddCompanyComponent&#45;&gt;RegistriesModule -->
<g id="edge2" class="edge">
<title>AddCompanyComponent&#45;&gt;RegistriesModule</title>
<path fill="none" stroke="black" d="M2573,-122.31C2573,-142.15 2573,-171 2573,-171 2573,-171 1632.81,-171 1632.81,-171"/>
<polygon fill="black" stroke="black" points="1632.81,-167.5 1622.81,-171 1632.81,-174.5 1632.81,-167.5"/>
</g>
<!-- AddContactComponent -->
<g id="node3" class="node">
<title>AddContactComponent</title>
<polygon fill="#ffffb3" stroke="black" points="2475.49,-122 2326.51,-122 2326.51,-86 2475.49,-86 2475.49,-122"/>
<text text-anchor="middle" x="2401" y="-99.8" font-family="Times,serif" font-size="14.00">AddContactComponent</text>
</g>
<!-- AddContactComponent&#45;&gt;RegistriesModule -->
<g id="edge3" class="edge">
<title>AddContactComponent&#45;&gt;RegistriesModule</title>
<path fill="none" stroke="black" d="M2401,-122.17C2401,-141.09 2401,-168 2401,-168 2401,-168 1632.79,-168 1632.79,-168"/>
<polygon fill="black" stroke="black" points="1632.79,-164.5 1622.79,-168 1632.79,-171.5 1632.79,-164.5"/>
</g>
<!-- CompaniesComponent -->
<g id="node4" class="node">
<title>CompaniesComponent</title>
<polygon fill="#ffffb3" stroke="black" points="2308.32,-122 2163.68,-122 2163.68,-86 2308.32,-86 2308.32,-122"/>
<text text-anchor="middle" x="2236" y="-99.8" font-family="Times,serif" font-size="14.00">CompaniesComponent</text>
</g>
<!-- CompaniesComponent&#45;&gt;RegistriesModule -->
<g id="edge4" class="edge">
<title>CompaniesComponent&#45;&gt;RegistriesModule</title>
<path fill="none" stroke="black" d="M2236,-122.3C2236,-140.27 2236,-165 2236,-165 2236,-165 1632.79,-165 1632.79,-165"/>
<polygon fill="black" stroke="black" points="1632.79,-161.5 1622.79,-165 1632.79,-168.5 1632.79,-161.5"/>
</g>
<!-- CompanyComponent -->
<g id="node5" class="node">
<title>CompanyComponent</title>
<polygon fill="#ffffb3" stroke="black" points="2145.77,-122 2010.23,-122 2010.23,-86 2145.77,-86 2145.77,-122"/>
<text text-anchor="middle" x="2078" y="-99.8" font-family="Times,serif" font-size="14.00">CompanyComponent</text>
</g>
<!-- CompanyComponent&#45;&gt;RegistriesModule -->
<g id="edge5" class="edge">
<title>CompanyComponent&#45;&gt;RegistriesModule</title>
<path fill="none" stroke="black" d="M2078,-122.04C2078,-138.73 2078,-161 2078,-161 2078,-161 1632.85,-161 1632.85,-161"/>
<polygon fill="black" stroke="black" points="1632.85,-157.5 1622.85,-161 1632.85,-164.5 1632.85,-157.5"/>
</g>
<!-- ContactComponent -->
<g id="node6" class="node">
<title>ContactComponent</title>
<polygon fill="#ffffb3" stroke="black" points="1992.38,-122 1867.62,-122 1867.62,-86 1992.38,-86 1992.38,-122"/>
<text text-anchor="middle" x="1930" y="-99.8" font-family="Times,serif" font-size="14.00">ContactComponent</text>
</g>
<!-- ContactComponent&#45;&gt;RegistriesModule -->
<g id="edge6" class="edge">
<title>ContactComponent&#45;&gt;RegistriesModule</title>
<path fill="none" stroke="black" d="M1930,-122.28C1930,-137.95 1930,-158 1930,-158 1930,-158 1632.84,-158 1632.84,-158"/>
<polygon fill="black" stroke="black" points="1632.84,-154.5 1622.84,-158 1632.84,-161.5 1632.84,-154.5"/>
</g>
<!-- ContactsComponent -->
<g id="node7" class="node">
<title>ContactsComponent</title>
<polygon fill="#ffffb3" stroke="black" points="1849.32,-122 1718.68,-122 1718.68,-86 1849.32,-86 1849.32,-122"/>
<text text-anchor="middle" x="1784" y="-99.8" font-family="Times,serif" font-size="14.00">ContactsComponent</text>
</g>
<!-- ContactsComponent&#45;&gt;RegistriesModule -->
<g id="edge7" class="edge">
<title>ContactsComponent&#45;&gt;RegistriesModule</title>
<path fill="none" stroke="black" d="M1784,-122.12C1784,-136.78 1784,-155 1784,-155 1784,-155 1632.54,-155 1632.54,-155"/>
<polygon fill="black" stroke="black" points="1632.54,-151.5 1622.54,-155 1632.54,-158.5 1632.54,-151.5"/>
</g>
<!-- EmailsComponent -->
<g id="node8" class="node">
<title>EmailsComponent</title>
<polygon fill="#ffffb3" stroke="black" points="1701.22,-122 1580.78,-122 1580.78,-86 1701.22,-86 1701.22,-122"/>
<text text-anchor="middle" x="1641" y="-99.8" font-family="Times,serif" font-size="14.00">EmailsComponent</text>
</g>
<!-- EmailsComponent&#45;&gt;RegistriesModule -->
<g id="edge8" class="edge">
<title>EmailsComponent&#45;&gt;RegistriesModule</title>
<path fill="none" stroke="black" d="M1601.83,-122.11C1601.83,-122.11 1601.83,-140.99 1601.83,-140.99"/>
<polygon fill="black" stroke="black" points="1598.33,-140.99 1601.83,-150.99 1605.33,-140.99 1598.33,-140.99"/>
</g>
<!-- InformationComponent -->
<g id="node9" class="node">
<title>InformationComponent</title>
<polygon fill="#ffffb3" stroke="black" points="1563.2,-122 1414.8,-122 1414.8,-86 1563.2,-86 1563.2,-122"/>
<text text-anchor="middle" x="1489" y="-99.8" font-family="Times,serif" font-size="14.00">InformationComponent</text>
</g>
<!-- InformationComponent&#45;&gt;RegistriesModule -->
<g id="edge9" class="edge">
<title>InformationComponent&#45;&gt;RegistriesModule</title>
<path fill="none" stroke="black" d="M1535.17,-122.11C1535.17,-122.11 1535.17,-140.99 1535.17,-140.99"/>
<polygon fill="black" stroke="black" points="1531.67,-140.99 1535.17,-150.99 1538.67,-140.99 1531.67,-140.99"/>
</g>
<!-- MeetingComponent -->
<g id="node10" class="node">
<title>MeetingComponent</title>
<polygon fill="#ffffb3" stroke="black" points="1396.99,-122 1269.01,-122 1269.01,-86 1396.99,-86 1396.99,-122"/>
<text text-anchor="middle" x="1333" y="-99.8" font-family="Times,serif" font-size="14.00">MeetingComponent</text>
</g>
<!-- MeetingComponent&#45;&gt;RegistriesModule -->
<g id="edge10" class="edge">
<title>MeetingComponent&#45;&gt;RegistriesModule</title>
<path fill="none" stroke="black" d="M1333,-122.12C1333,-136.78 1333,-155 1333,-155 1333,-155 1497.35,-155 1497.35,-155"/>
<polygon fill="black" stroke="black" points="1497.35,-158.5 1507.35,-155 1497.35,-151.5 1497.35,-158.5"/>
</g>
<!-- NotesComponent -->
<g id="node11" class="node">
<title>NotesComponent</title>
<polygon fill="#ffffb3" stroke="black" points="1250.99,-122 1137.01,-122 1137.01,-86 1250.99,-86 1250.99,-122"/>
<text text-anchor="middle" x="1194" y="-99.8" font-family="Times,serif" font-size="14.00">NotesComponent</text>
</g>
<!-- NotesComponent&#45;&gt;RegistriesModule -->
<g id="edge11" class="edge">
<title>NotesComponent&#45;&gt;RegistriesModule</title>
<path fill="none" stroke="black" d="M1194,-122.28C1194,-137.95 1194,-158 1194,-158 1194,-158 1497.44,-158 1497.44,-158"/>
<polygon fill="black" stroke="black" points="1497.44,-161.5 1507.44,-158 1497.44,-154.5 1497.44,-161.5"/>
</g>
<!-- PhoneComponent -->
<g id="node12" class="node">
<title>PhoneComponent</title>
<polygon fill="#ffffb3" stroke="black" points="1119.33,-122 1002.67,-122 1002.67,-86 1119.33,-86 1119.33,-122"/>
<text text-anchor="middle" x="1061" y="-99.8" font-family="Times,serif" font-size="14.00">PhoneComponent</text>
</g>
<!-- PhoneComponent&#45;&gt;RegistriesModule -->
<g id="edge12" class="edge">
<title>PhoneComponent&#45;&gt;RegistriesModule</title>
<path fill="none" stroke="black" d="M1061,-122.04C1061,-138.73 1061,-161 1061,-161 1061,-161 1497.18,-161 1497.18,-161"/>
<polygon fill="black" stroke="black" points="1497.18,-164.5 1507.18,-161 1497.18,-157.5 1497.18,-164.5"/>
</g>
<!-- ProfileComponent -->
<g id="node13" class="node">
<title>ProfileComponent</title>
<polygon fill="#ffffb3" stroke="black" points="984.93,-122 865.07,-122 865.07,-86 984.93,-86 984.93,-122"/>
<text text-anchor="middle" x="925" y="-99.8" font-family="Times,serif" font-size="14.00">ProfileComponent</text>
</g>
<!-- ProfileComponent&#45;&gt;RegistriesModule -->
<g id="edge13" class="edge">
<title>ProfileComponent&#45;&gt;RegistriesModule</title>
<path fill="none" stroke="black" d="M925,-122.3C925,-140.27 925,-165 925,-165 925,-165 1497.36,-165 1497.36,-165"/>
<polygon fill="black" stroke="black" points="1497.36,-168.5 1507.36,-165 1497.36,-161.5 1497.36,-168.5"/>
</g>
<!-- RegistriesComponent -->
<g id="node14" class="node">
<title>RegistriesComponent</title>
<polygon fill="#ffffb3" stroke="black" points="847.82,-122 710.18,-122 710.18,-86 847.82,-86 847.82,-122"/>
<text text-anchor="middle" x="779" y="-99.8" font-family="Times,serif" font-size="14.00">RegistriesComponent</text>
</g>
<!-- RegistriesComponent&#45;&gt;RegistriesModule -->
<g id="edge14" class="edge">
<title>RegistriesComponent&#45;&gt;RegistriesModule</title>
<path fill="none" stroke="black" d="M779,-122.17C779,-141.09 779,-168 779,-168 779,-168 1497.2,-168 1497.2,-168"/>
<polygon fill="black" stroke="black" points="1497.2,-171.5 1507.2,-168 1497.2,-164.5 1497.2,-171.5"/>
</g>
<!-- TabsComponent -->
<g id="node15" class="node">
<title>TabsComponent</title>
<polygon fill="#ffffb3" stroke="black" points="692.05,-122 583.95,-122 583.95,-86 692.05,-86 692.05,-122"/>
<text text-anchor="middle" x="638" y="-99.8" font-family="Times,serif" font-size="14.00">TabsComponent</text>
</g>
<!-- TabsComponent&#45;&gt;RegistriesModule -->
<g id="edge15" class="edge">
<title>TabsComponent&#45;&gt;RegistriesModule</title>
<path fill="none" stroke="black" d="M638,-122.31C638,-142.15 638,-171 638,-171 638,-171 1497.36,-171 1497.36,-171"/>
<polygon fill="black" stroke="black" points="1497.36,-174.5 1507.36,-171 1497.36,-167.5 1497.36,-174.5"/>
</g>
<!-- TasksComponent -->
<g id="node16" class="node">
<title>TasksComponent</title>
<polygon fill="#ffffb3" stroke="black" points="565.99,-122 452.01,-122 452.01,-86 565.99,-86 565.99,-122"/>
<text text-anchor="middle" x="509" y="-99.8" font-family="Times,serif" font-size="14.00">TasksComponent</text>
</g>
<!-- TasksComponent&#45;&gt;RegistriesModule -->
<g id="edge16" class="edge">
<title>TasksComponent&#45;&gt;RegistriesModule</title>
<path fill="none" stroke="black" d="M509,-122.03C509,-142.77 509,-174 509,-174 509,-174 1497.1,-174 1497.1,-174"/>
<polygon fill="black" stroke="black" points="1497.1,-177.5 1507.1,-174 1497.1,-170.5 1497.1,-177.5"/>
</g>
<!-- TenantComponent -->
<g id="node17" class="node">
<title>TenantComponent</title>
<polygon fill="#ffffb3" stroke="black" points="434.2,-122 313.8,-122 313.8,-86 434.2,-86 434.2,-122"/>
<text text-anchor="middle" x="374" y="-99.8" font-family="Times,serif" font-size="14.00">TenantComponent</text>
</g>
<!-- TenantComponent&#45;&gt;RegistriesModule -->
<g id="edge17" class="edge">
<title>TenantComponent&#45;&gt;RegistriesModule</title>
<path fill="none" stroke="black" d="M374,-122.29C374,-144.21 374,-178 374,-178 374,-178 1497.15,-178 1497.15,-178"/>
<polygon fill="black" stroke="black" points="1497.15,-181.5 1507.15,-178 1497.15,-174.5 1497.15,-181.5"/>
</g>
<!-- TenantsComponent -->
<g id="node18" class="node">
<title>TenantsComponent</title>
<polygon fill="#ffffb3" stroke="black" points="295.65,-122 170.35,-122 170.35,-86 295.65,-86 295.65,-122"/>
<text text-anchor="middle" x="233" y="-99.8" font-family="Times,serif" font-size="14.00">TenantsComponent</text>
</g>
<!-- TenantsComponent&#45;&gt;RegistriesModule -->
<g id="edge18" class="edge">
<title>TenantsComponent&#45;&gt;RegistriesModule</title>
<path fill="none" stroke="black" d="M233,-122.25C233,-145.02 233,-181 233,-181 233,-181 1497.34,-181 1497.34,-181"/>
<polygon fill="black" stroke="black" points="1497.34,-184.5 1507.34,-181 1497.34,-177.5 1497.34,-184.5"/>
</g>
<!-- WidgetsComponent -->
<g id="node19" class="node">
<title>WidgetsComponent</title>
<polygon fill="#ffffb3" stroke="black" points="151.99,-122 24.01,-122 24.01,-86 151.99,-86 151.99,-122"/>
<text text-anchor="middle" x="88" y="-99.8" font-family="Times,serif" font-size="14.00">WidgetsComponent</text>
</g>
<!-- WidgetsComponent&#45;&gt;RegistriesModule -->
<g id="edge19" class="edge">
<title>WidgetsComponent&#45;&gt;RegistriesModule</title>
<path fill="none" stroke="black" d="M88,-122.15C88,-145.76 88,-184 88,-184 88,-184 1497.1,-184 1497.1,-184"/>
<polygon fill="black" stroke="black" points="1497.1,-187.5 1507.1,-184 1497.1,-180.5 1497.1,-187.5"/>
</g>
<!-- RegistriesRoutingModule -->
<g id="node21" class="node">
<title>RegistriesRoutingModule</title>
<polygon fill="#8dd3c7" stroke="black" points="3272.16,-122 3269.16,-126 3248.16,-126 3245.16,-122 3111.84,-122 3111.84,-86 3272.16,-86 3272.16,-122"/>
<text text-anchor="middle" x="3192" y="-99.8" font-family="Times,serif" font-size="14.00">RegistriesRoutingModule</text>
</g>
<!-- RegistriesRoutingModule&#45;&gt;RegistriesModule -->
<g id="edge20" class="edge">
<title>RegistriesRoutingModule&#45;&gt;RegistriesModule</title>
<path fill="none" stroke="black" d="M3192,-122.15C3192,-145.76 3192,-184 3192,-184 3192,-184 1632.91,-184 1632.91,-184"/>
<polygon fill="black" stroke="black" points="1632.91,-180.5 1622.91,-184 1632.91,-187.5 1632.91,-180.5"/>
</g>
<!-- SharedModule -->
<g id="node22" class="node">
<title>SharedModule</title>
<polygon fill="#8dd3c7" stroke="black" points="3093.42,-122 3090.42,-126 3069.42,-126 3066.42,-122 2994.58,-122 2994.58,-86 3093.42,-86 3093.42,-122"/>
<text text-anchor="middle" x="3044" y="-99.8" font-family="Times,serif" font-size="14.00">SharedModule</text>
</g>
<!-- SharedModule&#45;&gt;RegistriesModule -->
<g id="edge21" class="edge">
<title>SharedModule&#45;&gt;RegistriesModule</title>
<path fill="none" stroke="black" d="M3044,-122.25C3044,-145.02 3044,-181 3044,-181 3044,-181 1632.98,-181 1632.98,-181"/>
<polygon fill="black" stroke="black" points="1632.98,-177.5 1622.98,-181 1632.98,-184.5 1632.98,-177.5"/>
</g>
<!-- WidgetsSharedModule -->
<g id="node23" class="node">
<title>WidgetsSharedModule</title>
<polygon fill="#8dd3c7" stroke="black" points="2976.58,-122 2973.58,-126 2952.58,-126 2949.58,-122 2831.42,-122 2831.42,-86 2976.58,-86 2976.58,-122"/>
<text text-anchor="middle" x="2904" y="-99.8" font-family="Times,serif" font-size="14.00">WidgetsSharedModule</text>
</g>
<!-- WidgetsSharedModule&#45;&gt;RegistriesModule -->
<g id="edge22" class="edge">
<title>WidgetsSharedModule&#45;&gt;RegistriesModule</title>
<path fill="none" stroke="black" d="M2904,-122.29C2904,-144.21 2904,-178 2904,-178 2904,-178 1632.96,-178 1632.96,-178"/>
<polygon fill="black" stroke="black" points="1632.96,-174.5 1622.96,-178 1632.96,-181.5 1632.96,-174.5"/>
</g>
</g>
</svg>
