<?xml version="1.0" encoding="UTF-8" standalone="no"?>
<!DOCTYPE svg PUBLIC "-//W3C//DTD SVG 1.1//EN"
 "http://www.w3.org/Graphics/SVG/1.1/DTD/svg11.dtd">
<!-- Generated by graphviz version 2.44.1 (20200629.0846)
 -->
<!-- Title: dependencies Pages: 1 -->
<svg width="504pt" height="211pt"
 viewBox="0.00 0.00 504.00 211.00" xmlns="http://www.w3.org/2000/svg" xmlns:xlink="http://www.w3.org/1999/xlink">
<g id="graph0" class="graph" transform="scale(1 1) rotate(0) translate(4 207)">
<title>dependencies</title>
<polygon fill="white" stroke="transparent" points="-4,4 -4,-207 500,-207 500,4 -4,4"/>
<text text-anchor="start" x="227.01" y="-42.4" font-family="sans-serif" font-weight="bold" font-size="14.00">Legend</text>
<polygon fill="#ffffb3" stroke="transparent" points="14,-10 14,-30 34,-30 34,-10 14,-10"/>
<text text-anchor="start" x="37.63" y="-15.4" font-family="sans-serif" font-size="14.00"> &#160;Declarations</text>
<polygon fill="#8dd3c7" stroke="transparent" points="127,-10 127,-30 147,-30 147,-10 127,-10"/>
<text text-anchor="start" x="150.73" y="-15.4" font-family="sans-serif" font-size="14.00"> &#160;Module</text>
<polygon fill="#80b1d3" stroke="transparent" points="213,-10 213,-30 233,-30 233,-10 213,-10"/>
<text text-anchor="start" x="236.78" y="-15.4" font-family="sans-serif" font-size="14.00"> &#160;Bootstrap</text>
<polygon fill="#fdb462" stroke="transparent" points="310,-10 310,-30 330,-30 330,-10 310,-10"/>
<text text-anchor="start" x="333.67" y="-15.4" font-family="sans-serif" font-size="14.00"> &#160;Providers</text>
<polygon fill="#fb8072" stroke="transparent" points="406,-10 406,-30 426,-30 426,-10 406,-10"/>
<text text-anchor="start" x="429.73" y="-15.4" font-family="sans-serif" font-size="14.00"> &#160;Exports</text>
<g id="clust1" class="cluster">
<title>cluster_TimeTrackingModule</title>
<polygon fill="none" stroke="black" stroke-dasharray="1,5" points="47,-70 47,-195 449,-195 449,-70 47,-70"/>
</g>
<g id="clust2" class="cluster">
<title>cluster_TimeTrackingModule_declarations</title>
<polygon fill="none" stroke="black" points="263,-78 263,-130 441,-130 441,-78 263,-78"/>
</g>
<g id="clust4" class="cluster">
<title>cluster_TimeTrackingModule_imports</title>
<polygon fill="none" stroke="black" points="55,-78 55,-130 255,-130 255,-78 55,-78"/>
</g>
<!-- TimeTrackingComponent -->
<g id="node1" class="node">
<title>TimeTrackingComponent</title>
<polygon fill="#ffffb3" stroke="black" points="432.91,-122 271.09,-122 271.09,-86 432.91,-86 432.91,-122"/>
<text text-anchor="middle" x="352" y="-99.8" font-family="Times,serif" font-size="14.00">TimeTrackingComponent</text>
</g>
<!-- TimeTrackingModule -->
<g id="node2" class="node">
<title>TimeTrackingModule</title>
<polygon fill="#8dd3c7" stroke="black" points="322.63,-187 319.63,-191 298.63,-191 295.63,-187 183.37,-187 183.37,-151 322.63,-151 322.63,-187"/>
<text text-anchor="middle" x="253" y="-164.8" font-family="Times,serif" font-size="14.00">TimeTrackingModule</text>
</g>
<!-- TimeTrackingComponent&#45;&gt;TimeTrackingModule -->
<g id="edge1" class="edge">
<title>TimeTrackingComponent&#45;&gt;TimeTrackingModule</title>
<path fill="none" stroke="black" d="M297.05,-122.11C297.05,-122.11 297.05,-140.99 297.05,-140.99"/>
<polygon fill="black" stroke="black" points="293.55,-140.99 297.05,-150.99 300.55,-140.99 293.55,-140.99"/>
</g>
<!-- TimeTrackingRoutingModule -->
<g id="node3" class="node">
<title>TimeTrackingRoutingModule</title>
<polygon fill="#8dd3c7" stroke="black" points="247.25,-122 244.25,-126 223.25,-126 220.25,-122 62.75,-122 62.75,-86 247.25,-86 247.25,-122"/>
<text text-anchor="middle" x="155" y="-99.8" font-family="Times,serif" font-size="14.00">TimeTrackingRoutingModule</text>
</g>
<!-- TimeTrackingRoutingModule&#45;&gt;TimeTrackingModule -->
<g id="edge2" class="edge">
<title>TimeTrackingRoutingModule&#45;&gt;TimeTrackingModule</title>
<path fill="none" stroke="black" d="M215.28,-122.11C215.28,-122.11 215.28,-140.99 215.28,-140.99"/>
<polygon fill="black" stroke="black" points="211.78,-140.99 215.28,-150.99 218.78,-140.99 211.78,-140.99"/>
</g>
</g>
</svg>
