<?xml version="1.0" encoding="UTF-8" standalone="no"?>
<!DOCTYPE svg PUBLIC "-//W3C//DTD SVG 1.1//EN"
 "http://www.w3.org/Graphics/SVG/1.1/DTD/svg11.dtd">
<!-- Generated by graphviz version 2.44.1 (20200629.0846)
 -->
<!-- Title: dependencies Pages: 1 -->
<svg width="1669pt" height="284pt"
 viewBox="0.00 0.00 1669.00 284.00" xmlns="http://www.w3.org/2000/svg" xmlns:xlink="http://www.w3.org/1999/xlink">
<g id="graph0" class="graph" transform="scale(1 1) rotate(0) translate(4 280)">
<title>dependencies</title>
<polygon fill="white" stroke="transparent" points="-4,4 -4,-280 1665,-280 1665,4 -4,4"/>
<text text-anchor="start" x="809.51" y="-42.4" font-family="sans-serif" font-weight="bold" font-size="14.00">Legend</text>
<polygon fill="#ffffb3" stroke="transparent" points="596.5,-10 596.5,-30 616.5,-30 616.5,-10 596.5,-10"/>
<text text-anchor="start" x="620.13" y="-15.4" font-family="sans-serif" font-size="14.00"> &#160;Declarations</text>
<polygon fill="#8dd3c7" stroke="transparent" points="709.5,-10 709.5,-30 729.5,-30 729.5,-10 709.5,-10"/>
<text text-anchor="start" x="733.23" y="-15.4" font-family="sans-serif" font-size="14.00"> &#160;Module</text>
<polygon fill="#80b1d3" stroke="transparent" points="795.5,-10 795.5,-30 815.5,-30 815.5,-10 795.5,-10"/>
<text text-anchor="start" x="819.28" y="-15.4" font-family="sans-serif" font-size="14.00"> &#160;Bootstrap</text>
<polygon fill="#fdb462" stroke="transparent" points="892.5,-10 892.5,-30 912.5,-30 912.5,-10 892.5,-10"/>
<text text-anchor="start" x="916.17" y="-15.4" font-family="sans-serif" font-size="14.00"> &#160;Providers</text>
<polygon fill="#fb8072" stroke="transparent" points="988.5,-10 988.5,-30 1008.5,-30 1008.5,-10 988.5,-10"/>
<text text-anchor="start" x="1012.23" y="-15.4" font-family="sans-serif" font-size="14.00"> &#160;Exports</text>
<g id="clust1" class="cluster">
<title>cluster_AppModule</title>
<polygon fill="none" stroke="black" stroke-dasharray="1,5" points="8,-70 8,-268 1653,-268 1653,-70 8,-70"/>
</g>
<g id="clust2" class="cluster">
<title>cluster_AppModule_declarations</title>
<polygon fill="none" stroke="black" points="285,-78 285,-130 1645,-130 1645,-78 285,-78"/>
</g>
<g id="clust14" class="cluster">
<title>cluster_AppModule_bootstrap</title>
<polygon fill="none" stroke="black" points="804,-208 804,-260 928,-260 928,-208 804,-208"/>
</g>
<g id="clust12" class="cluster">
<title>cluster_AppModule_imports</title>
<polygon fill="none" stroke="black" points="16,-78 16,-130 277,-130 277,-78 16,-78"/>
</g>
<!-- AppComponent -->
<g id="node1" class="node">
<title>AppComponent</title>
<polygon fill="#ffffb3" stroke="black" points="1636.94,-122 1531.06,-122 1531.06,-86 1636.94,-86 1636.94,-122"/>
<text text-anchor="middle" x="1584" y="-99.8" font-family="Times,serif" font-size="14.00">AppComponent</text>
</g>
<!-- AppModule -->
<g id="node10" class="node">
<title>AppModule</title>
<polygon fill="#8dd3c7" stroke="black" points="907.66,-187 904.66,-191 883.66,-191 880.66,-187 824.34,-187 824.34,-151 907.66,-151 907.66,-187"/>
<text text-anchor="middle" x="866" y="-164.8" font-family="Times,serif" font-size="14.00">AppModule</text>
</g>
<!-- AppComponent&#45;&gt;AppModule -->
<g id="edge1" class="edge">
<title>AppComponent&#45;&gt;AppModule</title>
<path fill="none" stroke="black" d="M1584,-122.25C1584,-145.02 1584,-181 1584,-181 1584,-181 917.71,-181 917.71,-181"/>
<polygon fill="black" stroke="black" points="917.71,-177.5 907.71,-181 917.71,-184.5 917.71,-177.5"/>
</g>
<!-- BreadcrumbsComponent -->
<g id="node2" class="node">
<title>BreadcrumbsComponent</title>
<polygon fill="#ffffb3" stroke="black" points="1512.97,-122 1357.03,-122 1357.03,-86 1512.97,-86 1512.97,-122"/>
<text text-anchor="middle" x="1435" y="-99.8" font-family="Times,serif" font-size="14.00">BreadcrumbsComponent</text>
</g>
<!-- BreadcrumbsComponent&#45;&gt;AppModule -->
<g id="edge2" class="edge">
<title>BreadcrumbsComponent&#45;&gt;AppModule</title>
<path fill="none" stroke="black" d="M1435,-122.28C1435,-143.32 1435,-175 1435,-175 1435,-175 917.84,-175 917.84,-175"/>
<polygon fill="black" stroke="black" points="917.84,-171.5 907.84,-175 917.84,-178.5 917.84,-171.5"/>
</g>
<!-- FooterComponent -->
<g id="node3" class="node">
<title>FooterComponent</title>
<polygon fill="#ffffb3" stroke="black" points="1338.88,-122 1221.12,-122 1221.12,-86 1338.88,-86 1338.88,-122"/>
<text text-anchor="middle" x="1280" y="-99.8" font-family="Times,serif" font-size="14.00">FooterComponent</text>
</g>
<!-- FooterComponent&#45;&gt;AppModule -->
<g id="edge3" class="edge">
<title>FooterComponent&#45;&gt;AppModule</title>
<path fill="none" stroke="black" d="M1280,-122.11C1280,-141.34 1280,-169 1280,-169 1280,-169 917.97,-169 917.97,-169"/>
<polygon fill="black" stroke="black" points="917.97,-165.5 907.97,-169 917.97,-172.5 917.97,-165.5"/>
</g>
<!-- HeaderComponent -->
<g id="node4" class="node">
<title>HeaderComponent</title>
<polygon fill="#ffffb3" stroke="black" points="1202.74,-122 1081.26,-122 1081.26,-86 1202.74,-86 1202.74,-122"/>
<text text-anchor="middle" x="1142" y="-99.8" font-family="Times,serif" font-size="14.00">HeaderComponent</text>
</g>
<!-- HeaderComponent&#45;&gt;AppModule -->
<g id="edge4" class="edge">
<title>HeaderComponent&#45;&gt;AppModule</title>
<path fill="none" stroke="black" d="M1142,-122.02C1142,-139.37 1142,-163 1142,-163 1142,-163 917.92,-163 917.92,-163"/>
<polygon fill="black" stroke="black" points="917.92,-159.5 907.92,-163 917.92,-166.5 917.92,-159.5"/>
</g>
<!-- HelpComponent -->
<g id="node5" class="node">
<title>HelpComponent</title>
<polygon fill="#ffffb3" stroke="black" points="1063.05,-122 954.95,-122 954.95,-86 1063.05,-86 1063.05,-122"/>
<text text-anchor="middle" x="1009" y="-99.8" font-family="Times,serif" font-size="14.00">HelpComponent</text>
</g>
<!-- HelpComponent&#45;&gt;AppModule -->
<g id="edge5" class="edge">
<title>HelpComponent&#45;&gt;AppModule</title>
<path fill="none" stroke="black" d="M1009,-122.24C1009,-137.57 1009,-157 1009,-157 1009,-157 917.75,-157 917.75,-157"/>
<polygon fill="black" stroke="black" points="917.75,-153.5 907.75,-157 917.75,-160.5 917.75,-153.5"/>
</g>
<!-- MainBodyComponent -->
<g id="node6" class="node">
<title>MainBodyComponent</title>
<polygon fill="#ffffb3" stroke="black" points="936.72,-122 795.28,-122 795.28,-86 936.72,-86 936.72,-122"/>
<text text-anchor="middle" x="866" y="-99.8" font-family="Times,serif" font-size="14.00">MainBodyComponent</text>
</g>
<!-- MainBodyComponent&#45;&gt;AppModule -->
<g id="edge6" class="edge">
<title>MainBodyComponent&#45;&gt;AppModule</title>
<path fill="none" stroke="black" d="M866,-122.11C866,-122.11 866,-140.99 866,-140.99"/>
<polygon fill="black" stroke="black" points="862.5,-140.99 866,-150.99 869.5,-140.99 862.5,-140.99"/>
</g>
<!-- QuickMenuComponent -->
<g id="node7" class="node">
<title>QuickMenuComponent</title>
<polygon fill="#ffffb3" stroke="black" points="777.2,-122 628.8,-122 628.8,-86 777.2,-86 777.2,-122"/>
<text text-anchor="middle" x="703" y="-99.8" font-family="Times,serif" font-size="14.00">QuickMenuComponent</text>
</g>
<!-- QuickMenuComponent&#45;&gt;AppModule -->
<g id="edge7" class="edge">
<title>QuickMenuComponent&#45;&gt;AppModule</title>
<path fill="none" stroke="black" d="M703,-122.24C703,-137.57 703,-157 703,-157 703,-157 814.02,-157 814.02,-157"/>
<polygon fill="black" stroke="black" points="814.02,-160.5 824.02,-157 814.02,-153.5 814.02,-160.5"/>
</g>
<!-- SidebarComponent -->
<g id="node8" class="node">
<title>SidebarComponent</title>
<polygon fill="#ffffb3" stroke="black" points="611.1,-122 486.9,-122 486.9,-86 611.1,-86 611.1,-122"/>
<text text-anchor="middle" x="549" y="-99.8" font-family="Times,serif" font-size="14.00">SidebarComponent</text>
</g>
<!-- SidebarComponent&#45;&gt;AppModule -->
<g id="edge8" class="edge">
<title>SidebarComponent&#45;&gt;AppModule</title>
<path fill="none" stroke="black" d="M549,-122.02C549,-139.37 549,-163 549,-163 549,-163 814.23,-163 814.23,-163"/>
<polygon fill="black" stroke="black" points="814.23,-166.5 824.23,-163 814.23,-159.5 814.23,-166.5"/>
</g>
<!-- SubHeaderMenuComponent -->
<g id="node9" class="node">
<title>SubHeaderMenuComponent</title>
<polygon fill="#ffffb3" stroke="black" points="469.19,-122 292.81,-122 292.81,-86 469.19,-86 469.19,-122"/>
<text text-anchor="middle" x="381" y="-99.8" font-family="Times,serif" font-size="14.00">SubHeaderMenuComponent</text>
</g>
<!-- SubHeaderMenuComponent&#45;&gt;AppModule -->
<g id="edge9" class="edge">
<title>SubHeaderMenuComponent&#45;&gt;AppModule</title>
<path fill="none" stroke="black" d="M381,-122.11C381,-141.34 381,-169 381,-169 381,-169 814.23,-169 814.23,-169"/>
<polygon fill="black" stroke="black" points="814.23,-172.5 824.23,-169 814.23,-165.5 814.23,-172.5"/>
</g>
<!-- AppComponent  -->
<g id="node13" class="node">
<title>AppComponent </title>
<polygon fill="#80b1d3" stroke="black" points="920.44,-252 811.56,-252 811.56,-216 920.44,-216 920.44,-252"/>
<text text-anchor="middle" x="866" y="-229.8" font-family="Times,serif" font-size="14.00">AppComponent </text>
</g>
<!-- AppModule&#45;&gt;AppComponent  -->
<g id="edge12" class="edge">
<title>AppModule&#45;&gt;AppComponent </title>
<path fill="none" stroke="black" stroke-dasharray="1,5" d="M866,-187.11C866,-187.11 866,-205.99 866,-205.99"/>
<polygon fill="black" stroke="black" points="862.5,-205.99 866,-215.99 869.5,-205.99 862.5,-205.99"/>
</g>
<!-- AppRoutingModule -->
<g id="node11" class="node">
<title>AppRoutingModule</title>
<polygon fill="#8dd3c7" stroke="black" points="269.27,-122 266.27,-126 245.27,-126 242.27,-122 140.73,-122 140.73,-86 269.27,-86 269.27,-122"/>
<text text-anchor="middle" x="205" y="-99.8" font-family="Times,serif" font-size="14.00">AppRoutingModule</text>
</g>
<!-- AppRoutingModule&#45;&gt;AppModule -->
<g id="edge10" class="edge">
<title>AppRoutingModule&#45;&gt;AppModule</title>
<path fill="none" stroke="black" d="M205,-122.28C205,-143.32 205,-175 205,-175 205,-175 814.15,-175 814.15,-175"/>
<polygon fill="black" stroke="black" points="814.15,-178.5 824.15,-175 814.15,-171.5 814.15,-178.5"/>
</g>
<!-- SharedModule -->
<g id="node12" class="node">
<title>SharedModule</title>
<polygon fill="#8dd3c7" stroke="black" points="122.42,-122 119.42,-126 98.42,-126 95.42,-122 23.58,-122 23.58,-86 122.42,-86 122.42,-122"/>
<text text-anchor="middle" x="73" y="-99.8" font-family="Times,serif" font-size="14.00">SharedModule</text>
</g>
<!-- SharedModule&#45;&gt;AppModule -->
<g id="edge11" class="edge">
<title>SharedModule&#45;&gt;AppModule</title>
<path fill="none" stroke="black" d="M73,-122.25C73,-145.02 73,-181 73,-181 73,-181 814.2,-181 814.2,-181"/>
<polygon fill="black" stroke="black" points="814.2,-184.5 824.2,-181 814.2,-177.5 814.2,-184.5"/>
</g>
</g>
</svg>
