<?xml version="1.0" encoding="UTF-8" standalone="no"?>
<!DOCTYPE svg PUBLIC "-//W3C//DTD SVG 1.1//EN"
 "http://www.w3.org/Graphics/SVG/1.1/DTD/svg11.dtd">
<!-- Generated by graphviz version 2.44.1 (20200629.0846)
 -->
<!-- Title: dependencies Pages: 1 -->
<svg width="504pt" height="211pt"
 viewBox="0.00 0.00 504.00 211.00" xmlns="http://www.w3.org/2000/svg" xmlns:xlink="http://www.w3.org/1999/xlink">
<g id="graph0" class="graph" transform="scale(1 1) rotate(0) translate(4 207)">
<title>dependencies</title>
<polygon fill="white" stroke="transparent" points="-4,4 -4,-207 500,-207 500,4 -4,4"/>
<text text-anchor="start" x="227.01" y="-42.4" font-family="sans-serif" font-weight="bold" font-size="14.00">Legend</text>
<polygon fill="#ffffb3" stroke="transparent" points="14,-10 14,-30 34,-30 34,-10 14,-10"/>
<text text-anchor="start" x="37.63" y="-15.4" font-family="sans-serif" font-size="14.00"> &#160;Declarations</text>
<polygon fill="#8dd3c7" stroke="transparent" points="127,-10 127,-30 147,-30 147,-10 127,-10"/>
<text text-anchor="start" x="150.73" y="-15.4" font-family="sans-serif" font-size="14.00"> &#160;Module</text>
<polygon fill="#80b1d3" stroke="transparent" points="213,-10 213,-30 233,-30 233,-10 213,-10"/>
<text text-anchor="start" x="236.78" y="-15.4" font-family="sans-serif" font-size="14.00"> &#160;Bootstrap</text>
<polygon fill="#fdb462" stroke="transparent" points="310,-10 310,-30 330,-30 330,-10 310,-10"/>
<text text-anchor="start" x="333.67" y="-15.4" font-family="sans-serif" font-size="14.00"> &#160;Providers</text>
<polygon fill="#fb8072" stroke="transparent" points="406,-10 406,-30 426,-30 426,-10 406,-10"/>
<text text-anchor="start" x="429.73" y="-15.4" font-family="sans-serif" font-size="14.00"> &#160;Exports</text>
<g id="clust1" class="cluster">
<title>cluster_OpportunityModule</title>
<polygon fill="none" stroke="black" stroke-dasharray="1,5" points="58,-70 58,-195 438,-195 438,-70 58,-70"/>
</g>
<g id="clust2" class="cluster">
<title>cluster_OpportunityModule_declarations</title>
<polygon fill="none" stroke="black" points="264,-78 264,-130 430,-130 430,-78 264,-78"/>
</g>
<g id="clust4" class="cluster">
<title>cluster_OpportunityModule_imports</title>
<polygon fill="none" stroke="black" points="66,-78 66,-130 256,-130 256,-78 66,-78"/>
</g>
<!-- OpportunityComponent -->
<g id="node1" class="node">
<title>OpportunityComponent</title>
<polygon fill="#ffffb3" stroke="black" points="421.77,-122 272.23,-122 272.23,-86 421.77,-86 421.77,-122"/>
<text text-anchor="middle" x="347" y="-99.8" font-family="Times,serif" font-size="14.00">OpportunityComponent</text>
</g>
<!-- OpportunityModule -->
<g id="node2" class="node">
<title>OpportunityModule</title>
<polygon fill="#8dd3c7" stroke="black" points="317.99,-187 314.99,-191 293.99,-191 290.99,-187 190.01,-187 190.01,-151 317.99,-151 317.99,-187"/>
<text text-anchor="middle" x="254" y="-164.8" font-family="Times,serif" font-size="14.00">OpportunityModule</text>
</g>
<!-- OpportunityComponent&#45;&gt;OpportunityModule -->
<g id="edge1" class="edge">
<title>OpportunityComponent&#45;&gt;OpportunityModule</title>
<path fill="none" stroke="black" d="M295.05,-122.11C295.05,-122.11 295.05,-140.99 295.05,-140.99"/>
<polygon fill="black" stroke="black" points="291.55,-140.99 295.05,-150.99 298.55,-140.99 291.55,-140.99"/>
</g>
<!-- OpportunityRoutingModule -->
<g id="node3" class="node">
<title>OpportunityRoutingModule</title>
<polygon fill="#8dd3c7" stroke="black" points="247.61,-122 244.61,-126 223.61,-126 220.61,-122 74.39,-122 74.39,-86 247.61,-86 247.61,-122"/>
<text text-anchor="middle" x="161" y="-99.8" font-family="Times,serif" font-size="14.00">OpportunityRoutingModule</text>
</g>
<!-- OpportunityRoutingModule&#45;&gt;OpportunityModule -->
<g id="edge2" class="edge">
<title>OpportunityRoutingModule&#45;&gt;OpportunityModule</title>
<path fill="none" stroke="black" d="M218.78,-122.11C218.78,-122.11 218.78,-140.99 218.78,-140.99"/>
<polygon fill="black" stroke="black" points="215.28,-140.99 218.78,-150.99 222.28,-140.99 215.28,-140.99"/>
</g>
</g>
</svg>
